<mxfile host="app.diagrams.net" modified="2023-04-04T01:54:28.909Z" agent="Mozilla/5.0 (X11; Linux x86_64; rv:91.0) Gecko/20100101 Firefox/91.0" version="21.1.1" etag="10JxEE3Lb3wux-k6wQKI" type="github">
  <diagram name="第 1 页" id="KGofF_2YMxBLQRk-9fWu">
    <mxGraphModel>
      <root>
        <mxCell id="0" />
        <mxCell id="1" parent="0" />
      </root>
    </mxGraphModel>
  </diagram>
</mxfile>
